<svg xmlns="http://www.w3.org/2000/svg" viewBox="0 0 24 24" fill="black">
  <path d="M16.365 1.43c0 1.14-.462 2.203-1.232 3.037-.89.96-2.42 1.7-3.86 1.59-.19-1.12.37-2.32 1.13-3.14.85-.92 2.37-1.6 3.96-1.49z"></path>
  <path d="M20.82 17.32c-.48 1.12-.7 1.62-1.31 2.61-.86 1.38-2.07 3.1-3.57 3.12-1.33.02-1.67-.87-3.46-.86-1.78.01-2.16.88-3.48.86-1.5-.02-2.65-1.58-3.5-2.96-2.42-3.94-2.67-8.57-1.18-10.86 1.05-1.61 2.72-2.56 4.27-2.56 1.58 0 2.57.87 3.88.87 1.28 0 2.05-.87 3.87-.87 1.38 0 2.85.75 3.9 2.05-3.42 1.87-2.87 6.7.58 8.6z"></path>
</svg>
