<?xml version="1.0" encoding="utf-8"?>
<!-- Generator: Adobe Illustrator 24.1.1, SVG Export Plug-In . SVG Version: 6.00 Build 0)  -->
<svg version="1.1" id="Layer_1" xmlns="http://www.w3.org/2000/svg" xmlns:xlink="http://www.w3.org/1999/xlink" x="0px" y="0px"
	 viewBox="0 0 512 512" style="enable-background:new 0 0 512 512;" xml:space="preserve">
<style type="text/css">
	.st0{fill-rule:evenodd;clip-rule:evenodd;}
</style>
<g>
	<path class="st0" d="M312.1,126.5H64.8c-17.9,0-32.4,14.5-32.4,32.4l0.1,2.9l20.6,226.7c1.5,16.7,15.5,29.5,32.2,29.5h200v32.4
		h-200c-33.5,0-61.4-25.6-64.5-58.9L0.3,164.7c-1.4-15,2.5-30,11.1-42.4l-1.3-28.2c0-35.8,29-64.8,64.8-64.8h118.9
		c17.2,0,33.6,6.8,45.8,19l26.8,26.8c12.1,12.1,28.6,19,45.8,19h129c35.8,0,64.8,29,64.8,64.8l-0.3,5.9l-8.3,91.3h-32.6l8.6-94.2
		c1.6-17.8-11.5-33.5-29.3-35.2l-2.9-0.1H312.1z M216.6,71.2l23,22.9H64.8c-7.8,0-15.2,1.4-22.2,3.9l-0.2-4.5
		c0.3-17.6,14.7-31.7,32.4-31.7h118.9C202.3,61.7,210.6,65.1,216.6,71.2L216.6,71.2z"/>
	<path class="st0" d="M431,320.8c8.9,0,16.2,7.3,16.2,16.2v64.8c0,8.9-7.3,16.2-16.2,16.2h-64.8c-8.9,0-16.2-7.3-16.2-16.2
		c0-8.9,7.3-16.2,16.2-16.2h48.6V337C414.8,328,422.1,320.8,431,320.8z"/>
	<path class="st0" d="M414.8,401.7c0-8.9,7.3-16.2,16.2-16.2h64.8c8.9,0,16.2,7.3,16.2,16.2c0,8.9-7.3,16.2-16.2,16.2h-48.6v48.6
		c0,8.9-7.3,16.2-16.2,16.2c-8.9,0-16.2-7.3-16.2-16.2V401.7z"/>
</g>
</svg>
