<svg xmlns="http://www.w3.org/2000/svg" width="48" height="48" viewBox="0 0 48 48">
  <path fill="#EA4335" d="M24 9.5c3.54 0 6.7 1.22 9.19 3.6l6.85-6.85C35.9 2.38 30.47 0 24 0 14.62 0 6.51 5.38 2.56 13.22l7.98 6.19C12.43 13.09 17.74 9.5 24 9.5z"></path>
  <path fill="#4285F4" d="M46.1 24.55c0-1.64-.15-3.22-.43-4.75H24v9h12.5c-.54 2.9-2.18 5.36-4.65 7.04l7.19 5.59c4.2-3.88 6.56-9.59 6.56-16.88z"></path>
  <path fill="#FBBC05" d="M10.53 28.41c-.48-1.45-.76-2.99-.76-4.41s.27-2.96.76-4.41l-7.98-6.19C.92 16.46 0 20.12 0 24s.92 7.54 2.56 10.6l7.97-6.19z"></path>
  <path fill="#34A853" d="M24 48c6.48 0 11.93-2.13 15.9-5.77l-7.19-5.59c-2 1.34-4.56 2.13-8.71 2.13-6.26 0-11.57-3.59-13.47-8.91l-7.98 6.19C6.51 42.62 14.62 48 24 48z"></path>
</svg>
