<svg xmlns="http://www.w3.org/2000/svg" viewBox="0 0 24 24" fill="none" stroke="currentColor" stroke-width="1.5" stroke-linecap="round" stroke-linejoin="round">
  <!-- Outer interlocking ring (tight) -->
  <path d="M12 2.8c3 0 5.2 1.6 6.6 4.1"></path>
  <path d="M18.6 6.9c1.4 2.4 1.4 5 0 7.4"></path>
  <path d="M18.6 14.3c-1.4 2.5-3.6 4.1-6.6 4.1"></path>
  <path d="M12 18.4c-3 0-5.2-1.6-6.6-4.1"></path>
  <path d="M5.4 14.3c-1.4-2.4-1.4-5 0-7.4"></path>
  <path d="M5.4 6.9C6.8 4.4 9 2.8 12 2.8"></path>

  <!-- Inner weave (scaled up) -->
  <path d="M8.6 9.1l3.4 2 3.4-2"></path>
  <path d="M15.4 12.9l-3.4 2-3.4-2"></path>
</svg>
